<svg width="89" height="25" fill="none" xmlns="http://www.w3.org/2000/svg"><path d="M10.406 17.594H6.281L5.031 24H2.797l1.25-6.406H.313v-2.14h4.14l1.078-5.532H1.5V7.75h4.453l1.281-6.5H9.47l-1.281 6.5h4.124l1.282-6.5h2.25l-1.281 6.5h3.187v2.172h-3.61l-1.078 5.531h3.516v2.14h-3.922L11.406 24h-2.25l1.25-6.406zm-3.719-2.14h4.125l1.079-5.532H7.766l-1.079 5.531zm30.86 1.327c-.281 2.407-1.172 4.266-2.672 5.578-1.49 1.302-3.474 1.953-5.953 1.953-2.688 0-4.844-.963-6.469-2.89-1.614-1.927-2.422-4.505-2.422-7.735V11.5c0-2.115.375-3.974 1.125-5.578.76-1.604 1.834-2.833 3.219-3.688C25.76 1.37 27.365.938 29.188.938c2.416 0 4.354.677 5.812 2.03 1.458 1.345 2.307 3.21 2.547 5.595H34.53c-.26-1.813-.828-3.126-1.703-3.938-.865-.813-2.078-1.219-3.64-1.219-1.917 0-3.422.709-4.516 2.125-1.084 1.417-1.625 3.433-1.625 6.047v2.203c0 2.469.515 4.432 1.547 5.89 1.031 1.46 2.474 2.188 4.328 2.188 1.666 0 2.943-.375 3.828-1.125.896-.76 1.49-2.078 1.781-3.953h3.016zM51.64 24c-.167-.333-.302-.927-.407-1.781-1.343 1.396-2.948 2.093-4.812 2.093-1.667 0-3.037-.468-4.11-1.406-1.062-.948-1.593-2.146-1.593-3.593 0-1.76.666-3.125 2-4.094 1.343-.98 3.229-1.469 5.656-1.469h2.813v-1.328c0-1.01-.303-1.813-.907-2.406-.604-.605-1.495-.907-2.672-.907-1.03 0-1.895.26-2.593.782-.698.52-1.047 1.15-1.047 1.89h-2.907c0-.844.297-1.656.891-2.437.604-.792 1.417-1.417 2.438-1.875 1.03-.459 2.161-.688 3.39-.688 1.948 0 3.474.49 4.578 1.469 1.105.969 1.677 2.307 1.72 4.016v7.78c0 1.553.197 2.787.593 3.704V24H51.64zm-4.797-2.203a5.08 5.08 0 002.578-.703c.812-.469 1.4-1.078 1.766-1.828v-3.47h-2.266c-3.542 0-5.313 1.037-5.313 3.11 0 .907.302 1.615.907 2.125.604.51 1.38.766 2.328.766zm21.61-2.281c0-.782-.298-1.386-.891-1.813-.584-.437-1.61-.812-3.079-1.125-1.458-.312-2.62-.687-3.484-1.125-.854-.437-1.49-.958-1.906-1.562-.407-.604-.61-1.323-.61-2.157 0-1.385.584-2.557 1.75-3.515 1.177-.959 2.677-1.438 4.5-1.438 1.917 0 3.47.495 4.657 1.485 1.197.99 1.796 2.255 1.796 3.796h-2.906c0-.791-.338-1.473-1.015-2.046-.667-.573-1.51-.86-2.532-.86-1.052 0-1.875.23-2.468.688-.594.458-.891 1.057-.891 1.797 0 .697.276 1.224.828 1.578.552.354 1.547.693 2.984 1.015 1.448.323 2.62.709 3.516 1.157.896.447 1.557.99 1.984 1.625.438.625.657 1.39.657 2.297 0 1.51-.604 2.724-1.813 3.64-1.208.906-2.776 1.36-4.703 1.36-1.354 0-2.552-.24-3.594-.72-1.041-.478-1.859-1.145-2.453-2-.583-.864-.875-1.796-.875-2.796h2.89c.053.969.438 1.74 1.157 2.312.73.563 1.688.844 2.875.844 1.094 0 1.969-.219 2.625-.656.667-.448 1-1.042 1-1.781zM78 9.14c1.281-1.573 2.948-2.36 5-2.36 3.573 0 5.375 2.016 5.406 6.047V24h-2.89V12.812c-.01-1.218-.292-2.12-.844-2.703-.542-.583-1.39-.875-2.547-.875-.938 0-1.76.25-2.469.75A5.093 5.093 0 0078 11.954V24h-2.89V0H78v9.14z" fill="#fff"/></svg>