<svg width="16" height="31" fill="none" xmlns="http://www.w3.org/2000/svg"><path d="M13.203 21.39c0-1.156-.375-2.098-1.125-2.828-.75-.74-2.073-1.437-3.969-2.093-2.354-.74-4.005-1.615-4.953-2.625-.948-1.021-1.422-2.339-1.422-3.953 0-1.698.521-3.073 1.563-4.125 1.042-1.063 2.458-1.667 4.25-1.813V.797H9.14v3.156c1.833.167 3.25.854 4.25 2.063 1.01 1.208 1.515 2.849 1.515 4.921h-1.86c0-1.635-.426-2.932-1.28-3.89-.844-.969-2-1.453-3.47-1.453-1.478 0-2.635.39-3.468 1.172-.823.77-1.234 1.802-1.234 3.093 0 1.25.38 2.23 1.14 2.938.76.698 2.052 1.36 3.875 1.984 1.834.615 3.162 1.209 3.985 1.781.833.563 1.453 1.235 1.86 2.016.416.771.624 1.698.624 2.781 0 1.709-.536 3.089-1.61 4.141-1.062 1.042-2.525 1.635-4.39 1.781v2.969H7.5v-2.953c-2.094-.136-3.714-.792-4.86-1.969-1.145-1.187-1.718-2.807-1.718-4.86h1.875c0 1.626.474 2.902 1.422 3.829.948.916 2.27 1.375 3.968 1.375 1.48 0 2.683-.396 3.61-1.188.937-.791 1.406-1.823 1.406-3.093z" fill="#fff"/></svg>