<svg width="16" height="25" fill="none" xmlns="http://www.w3.org/2000/svg"><path d="M11.89 15.203H5.345v.266c0 2.302.562 4.083 1.687 5.344 1.136 1.26 2.735 1.89 4.797 1.89 1.219 0 2.36-.177 3.422-.531l.156 1.672a14.312 14.312 0 01-3.594.468c-2.593 0-4.635-.765-6.124-2.296-1.48-1.532-2.235-3.662-2.266-6.391v-.422h-3v-1.39h3V11.25h-3V9.844h3c0-2.813.745-5 2.234-6.563C7.146 1.72 9.188.937 11.781.937c1.031 0 2.24.162 3.625.485l-.156 1.703a11.533 11.533 0 00-3.453-.547c-2.063 0-3.656.62-4.781 1.86C5.9 5.667 5.344 7.467 5.344 9.843h6.547v1.406H5.344v2.563h6.547v1.39z" fill="#fff"/></svg>